<?xml version="1.0" standalone="no"?>
<!DOCTYPE svg PUBLIC "-//W3C//DTD SVG 20010904//EN"
 "http://www.w3.org/TR/2001/REC-SVG-20010904/DTD/svg10.dtd">
<svg version="1.0" xmlns="http://www.w3.org/2000/svg"
 width="205.000000pt" height="205.000000pt" viewBox="0 0 205.000000 205.000000"
 preserveAspectRatio="xMidYMid meet">
<metadata>
Created by potrace 1.14, written by Peter Selinger 2001-2017
</metadata>
<g transform="translate(0.000000,205.000000) scale(0.100000,-0.100000)"
fill="#000000" stroke="none">
<path d="M970 1643 c-25 -9 -61 -46 -72 -73 -5 -14 -10 -78 -10 -142 l0 -118
-57 -1 c-31 0 -117 -2 -191 -4 -74 -3 -216 -6 -315 -9 -99 -3 -188 -8 -198
-12 -10 -4 -23 -18 -28 -32 -5 -14 -9 -151 -9 -307 1 -260 3 -284 19 -299 19
-17 61 -21 311 -30 63 -2 126 -9 140 -14 14 -6 66 -49 115 -97 50 -48 106 -94
125 -104 54 -27 103 -26 134 1 33 28 37 51 19 102 -26 76 -25 85 13 108 44 26
54 51 54 139 l0 69 53 1 c310 5 374 5 392 -4 11 -6 56 -45 100 -87 89 -85 106
-96 185 -120 66 -19 116 -18 138 4 14 14 15 22 3 73 -8 32 -16 75 -18 95 -5
35 -3 39 31 55 27 13 38 25 45 52 14 56 8 651 -7 678 -16 28 -29 32 -147 38
-147 7 -269 14 -365 20 -337 20 -442 24 -460 18z"/>
</g>
</svg>
